<?xml version="1.0" standalone="no"?>
<!DOCTYPE svg PUBLIC "-//W3C//DTD SVG 20010904//EN"
 "http://www.w3.org/TR/2001/REC-SVG-20010904/DTD/svg10.dtd">
<svg version="1.0" xmlns="http://www.w3.org/2000/svg"
 width="1000.000000pt" height="1290.000000pt" viewBox="0 0 1000.000000 1290.000000"
 preserveAspectRatio="xMidYMid meet">
<g transform="translate(0.000000,1290.000000) scale(0.100000,-0.100000)"
fill="#2d2d2d" stroke="none">
<path d="M338 12851 c-13 -138 -151 -276 -289 -289 -41 -4 -49 -8 -49 -25 0
-18 5 -19 54 -15 73 6 172 56 226 114 52 57 92 143 98 212 4 47 2 52 -15 52
-17 0 -21 -8 -25 -49z"/>
<path d="M540 12857 c0 -106 -65 -244 -159 -338 -94 -94 -232 -159 -338 -159
-39 0 -43 -2 -43 -25 0 -23 4 -25 46 -25 121 0 273 69 374 170 101 101 170
253 170 374 0 42 -2 46 -25 46 -23 0 -25 -4 -25 -43z"/>
<path d="M790 12849 c0 -189 -125 -429 -296 -567 -122 -98 -313 -172 -443
-172 -50 0 -51 0 -51 -31 l0 -32 87 6 c389 26 734 371 760 760 l6 87 -32 0
c-31 0 -31 -1 -31 -51z"/>
<path d="M1090 12841 c0 -226 -122 -507 -304 -700 -180 -189 -490 -331 -727
-331 l-59 0 0 -37 0 -36 103 6 c359 22 704 237 900 563 86 143 144 329 154
492 l6 102 -36 0 -37 0 0 -59z"/>
<path d="M1437 12798 c-23 -435 -269 -854 -648 -1103 -208 -138 -450 -220
-686 -232 l-103 -6 0 -38 0 -39 73 0 c186 1 420 61 615 159 279 140 533 394
673 673 98 195 158 429 159 616 l0 72 -39 0 -38 0 -6 -102z"/>
<path d="M1840 12820 c0 -44 -9 -135 -20 -203 -63 -396 -236 -733 -520 -1017
-284 -284 -621 -457 -1017 -520 -68 -11 -159 -20 -203 -20 l-80 0 0 -45 0 -45
88 0 c158 0 386 45 572 112 408 148 753 429 990 808 164 261 279 643 280 923
l0 87 -45 0 -45 0 0 -80z"/>
<path d="M2287 12763 c-20 -458 -206 -938 -508 -1310 -403 -496 -1025 -814
-1641 -840 l-138 -6 0 -50 0 -50 143 6 c902 37 1742 641 2081 1497 98 247 153
502 163 748 l6 142 -50 0 -50 0 -6 -137z"/>
<path d="M2790 12802 c0 -259 -70 -609 -180 -895 -282 -738 -880 -1338 -1612
-1616 -293 -111 -640 -181 -900 -181 l-98 0 0 -55 0 -55 103 0 c179 0 419 34
637 91 1006 262 1807 1063 2069 2069 57 218 91 458 91 637 l0 103 -55 0 -55 0
0 -98z"/>
<path d="M3340 12803 c0 -54 -5 -147 -10 -208 -149 -1602 -1423 -2876 -3025
-3025 -60 -5 -154 -10 -207 -10 l-98 0 0 -62 0 -61 178 6 c986 37 1937 533
2563 1337 432 555 691 1258 716 1943 l6 177 -61 0 -62 0 0 -97z"/>
<path d="M3937 12718 c-19 -579 -194 -1198 -483 -1719 -466 -838 -1203 -1471
-2099 -1802 -395 -146 -871 -236 -1247 -237 l-108 0 0 -67 0 -66 187 6 c709
23 1438 258 2049 660 1094 720 1790 1943 1831 3220 l6 187 -65 0 -65 0 -6
-182z"/>
<path d="M4590 12778 c0 -294 -52 -670 -140 -1013 -307 -1204 -1088 -2228
-2180 -2858 -241 -139 -577 -287 -855 -377 -419 -135 -913 -220 -1292 -220
l-123 0 0 -70 0 -70 128 0 c391 0 900 86 1321 222 1660 537 2885 1927 3205
3638 47 249 76 533 76 743 l0 127 -70 0 -70 0 0 -122z"/>
<path d="M5290 12768 c0 -227 -34 -558 -84 -829 -133 -714 -395 -1358 -802
-1969 -696 -1045 -1746 -1815 -2944 -2159 -425 -122 -944 -201 -1327 -201
l-133 0 0 -75 0 -75 138 0 c148 0 409 20 592 45 1183 159 2272 698 3119 1546
848 847 1387 1936 1546 3119 25 183 45 444 45 593 l0 137 -75 0 -75 0 0 -132z"/>
<path d="M6040 12757 c0 -247 -40 -645 -94 -943 -198 -1076 -677 -2065 -1410
-2904 -218 -249 -557 -568 -831 -782 -845 -657 -1860 -1082 -2909 -1219 -223
-29 -492 -49 -653 -49 l-143 0 0 -80 0 -80 148 0 c359 0 847 61 1272 160 1359
315 2581 1095 3462 2210 483 612 860 1346 1079 2105 145 499 239 1122 239
1577 l0 148 -80 0 -80 0 0 -143z"/>
<path d="M6840 12748 c0 -287 -42 -712 -106 -1063 -249 -1380 -902 -2623
-1899 -3620 -915 -915 -2031 -1537 -3285 -1830 -452 -106 -1005 -175 -1397
-175 l-153 0 0 -85 0 -85 163 0 c290 0 719 42 1075 106 1414 252 2701 925
3721 1945 1020 1020 1693 2307 1945 3721 64 356 106 785 106 1075 l0 163 -85
0 -85 0 0 -152z"/>
<path d="M7690 12733 c0 -315 -47 -794 -116 -1183 -245 -1374 -855 -2645
-1783 -3710 -173 -199 -532 -558 -731 -731 -1170 -1019 -2586 -1653 -4110
-1843 -276 -34 -581 -56 -783 -56 l-167 0 0 -90 0 -90 173 0 c202 0 593 29
862 64 1402 183 2742 751 3854 1634 458 364 919 825 1283 1283 883 1112 1451
2452 1634 3854 35 269 64 660 64 863 l0 172 -90 0 -90 0 0 -167z"/>
<path d="M8587 12633 c-31 -1350 -408 -2713 -1087 -3928 -925 -1655 -2437
-3004 -4180 -3732 -986 -412 -2027 -637 -3053 -660 l-267 -6 0 -93 0 -94 178
0 c206 0 425 13 712 41 1510 149 2951 691 4200 1581 788 561 1507 1280 2068
2068 692 972 1176 2062 1426 3215 120 552 196 1209 196 1698 l0 177 -94 0 -93
0 -6 -267z"/>
<path d="M9600 12793 c0 -150 -17 -493 -35 -708 -142 -1672 -718 -3268 -1679
-4655 -1067 -1539 -2584 -2747 -4329 -3447 -868 -348 -1800 -568 -2742 -648
-215 -18 -558 -35 -707 -35 l-108 0 0 -100 0 -100 118 0 c381 1 955 48 1392
116 1839 284 3522 1072 4957 2321 216 188 708 680 896 896 1493 1715 2319
3768 2427 6027 5 113 10 258 10 323 l0 117 -100 0 -100 0 0 -107z"/>
<path d="M9932 9341 c-407 -1128 -1008 -2189 -1766 -3115 -830 -1013 -1821
-1849 -2971 -2506 -431 -246 -1007 -517 -1459 -687 -1138 -426 -2265 -646
-3484 -679 l-252 -7 0 -105 0 -105 258 7 c1441 38 2792 339 4092 912 197 87
640 306 835 414 627 346 1240 770 1780 1229 419 357 879 817 1236 1236 723
849 1319 1826 1751 2867 l48 118 -2 299 -3 299 -63 -177z"/>
<path d="M9901 6958 c-288 -482 -657 -1001 -1028 -1445 -425 -509 -977 -1061
-1486 -1486 -1096 -916 -2373 -1628 -3727 -2081 -1098 -368 -2211 -562 -3392
-592 l-268 -7 0 -110 0 -110 272 7 c1545 39 2973 350 4388 955 267 115 811
383 1070 528 573 322 1098 675 1613 1085 570 455 1129 996 1618 1568 329 384
698 882 955 1288 l84 133 -2 212 -3 212 -94 -157z"/>
<path d="M9890 5028 c-477 -600 -1083 -1228 -1683 -1741 -540 -463 -1134 -889
-1753 -1258 -374 -224 -941 -517 -1327 -687 -1289 -570 -2641 -919 -4012
-1037 -335 -28 -469 -35 -792 -42 l-323 -6 0 -115 0 -115 328 6 c1532 30 3095
355 4535 943 428 175 990 445 1382 664 744 415 1438 896 2090 1448 502 425
1099 1026 1529 1540 l136 162 0 185 c0 102 -1 185 -2 185 -2 0 -50 -60 -108
-132z"/>
</g>
</svg>
